<svg width="93" height="139" viewBox="0 0 93 139" fill="none" xmlns="http://www.w3.org/2000/svg">
<path d="M91.1556 2.78474C91.1556 2.78474 74.0844 0 46.7514 0C19.5142 0 2.44303 2.78474 2.44303 2.78474C2.44303 2.78474 -6.7639 70.7708 19.9937 111.486C29.1048 125.313 46.7514 138.853 46.7514 138.949C46.8473 138.949 64.4939 125.313 73.509 111.486C100.458 70.7708 91.1556 2.78474 91.1556 2.78474Z" fill="white"/>
<path d="M8.38867 18.5325C8.48458 18.9166 8.58048 19.1086 8.58048 19.1086C9.15592 18.2444 10.3068 18.1484 11.074 18.2444C10.4986 18.0523 9.25182 17.9563 8.38867 18.5325Z" fill="black"/>
<path d="M11.2661 21.2215C11.362 21.2215 11.362 21.2215 11.4579 21.3175H11.5538V21.2215C11.1702 21.1255 10.6907 20.9334 10.5948 20.9334H10.403L11.2661 21.2215ZM10.2111 24.4864H10.1152V24.5824C10.2111 24.4864 10.403 24.4864 10.4989 24.3904C10.307 24.4864 10.2111 24.4864 10.2111 24.4864ZM21.3362 39.0823C21.528 39.2743 21.7198 39.3703 21.8157 39.4664L21.9116 39.5624C22.0075 39.6584 22.1034 39.7545 22.1034 39.8505L22.2952 40.0425L22.3911 40.1386C22.6789 40.4266 22.8707 40.8107 22.8707 41.1948V40.0425L22.1993 39.3703L21.3362 39.0823ZM30.9267 29.6718L31.9817 33.8969H29.584C29.7759 33.8969 29.9677 33.8969 30.1595 33.9929C31.0226 34.0889 31.7899 33.9929 32.5571 33.8969L31.9817 31.7843L30.9267 29.6718ZM18.0754 16.8043C17.9795 16.8043 17.404 16.6123 17.1163 16.6123C16.8286 16.5163 16.445 16.3242 15.9655 16.3242C15.5818 16.3242 13.8555 17.1884 13.8555 17.1884C13.9515 17.1884 15.0064 16.8043 15.2941 16.8043H15.6778C15.6778 16.9964 15.8696 17.0924 16.1573 17.0924C16.445 17.0924 16.6368 16.9004 16.7327 16.8043C17.1163 16.9004 17.5959 16.9004 17.8836 16.9004C17.9795 16.9004 18.0754 16.8043 18.0754 16.8043ZM20.0894 24.3904C20.0894 24.3904 20.1853 24.3904 20.1853 24.4864H20.2812C20.2812 24.4864 20.3771 24.4864 20.3771 24.5824C20.473 24.5824 20.473 24.6784 20.5689 24.6784H20.6648L20.7607 24.7745H20.8566C20.9526 24.7745 21.0485 24.8705 21.0485 24.8705H21.1444C21.4321 25.0625 22.1993 25.4466 23.1584 25.4466C22.2952 25.2546 21.6239 24.8705 21.6239 24.8705C20.6648 24.2943 20.0894 24.1023 19.8017 24.1983C19.9935 24.3904 19.9935 24.3904 20.0894 24.3904ZM11.6497 23.8142L11.4579 23.6222C11.2661 24.0063 11.0743 24.1983 10.8825 24.2943H10.4989C10.6907 24.2943 10.9784 24.2943 11.2661 24.1983C11.362 24.2943 11.5538 24.1023 11.6497 23.8142ZM12.6088 21.6056C12.8965 21.0295 13.0883 20.3573 13.0883 19.397V18.2447C13.0883 18.2447 12.8965 17.7646 12.5129 17.9567C12.5129 17.9567 12.7047 18.0527 12.7047 18.4368V19.397C12.6088 20.1652 12.417 20.9334 12.2252 21.6056L12.6088 21.9897C12.7047 22.0858 12.8965 22.3738 12.8006 22.7579C12.6088 23.142 12.417 23.7182 12.2252 23.8142C12.2252 23.8142 12.1292 23.9102 12.1292 24.0063L12.3211 24.3904C12.417 24.3904 12.417 24.0063 12.6088 23.8142C12.7047 23.6222 12.9924 23.142 13.1842 22.7579C13.2801 22.3738 13.0883 22.0858 12.9924 21.9897L12.6088 21.6056ZM36.0097 27.8473L38.3114 30.1519L38.0237 30.44L37.9278 30.536L37.736 30.7281L37.6401 30.8241L37.4483 31.0161L37.3524 31.1122L37.1606 31.3042L37.0647 31.4002C36.9688 31.4002 36.9688 31.4963 36.8729 31.4963C36.777 31.4963 36.777 31.5923 36.681 31.5923L36.5851 31.6883C36.4892 31.6883 36.4892 31.7843 36.3933 31.7843L36.2974 31.8804C36.2015 31.8804 36.2015 31.9764 36.1056 31.9764L36.0097 32.0724C35.9138 32.0724 35.9138 32.1684 35.8179 32.1684C35.8179 32.1684 35.722 32.1684 35.722 32.2645C35.6261 32.3605 35.5302 32.3605 35.5302 32.4565C34.9548 32.8406 34.2834 33.1287 33.6121 33.4168L33.708 33.6088C35.8179 33.0327 37.5442 31.6883 38.9828 30.0559L37.3524 28.4234L36.0097 27.8473ZM43.7781 17.4765C43.6821 17.8606 43.5862 18.3408 43.4903 19.0129V19.109C43.4903 19.205 43.4903 19.301 43.3944 19.397V19.7811C43.3944 19.8772 43.3944 19.9732 43.2985 19.9732V20.0692C43.2985 20.1652 43.2026 20.2613 43.2026 20.4533V20.5493C43.2026 20.6454 43.1067 20.7414 43.1067 20.9334C43.1067 21.0295 43.0108 21.2215 43.0108 21.3175V21.4136L42.7231 22.2778L42.1477 23.7182L42.7231 23.8142C44.1617 20.1652 44.6412 16.9964 44.6412 16.9964C44.2576 17.1884 43.9699 17.3805 43.7781 17.4765ZM38.6951 23.3341L41.6681 24.6784L41.3804 25.2546C40.805 26.599 40.0377 28.0393 39.0787 29.2877L39.5582 29.5757C40.7091 28.1354 41.5722 26.4069 42.3395 24.7745L39.4623 23.5261L38.6951 23.3341ZM25.0765 38.8902H24.4051C23.0625 41.771 24.0215 45.42 24.0215 45.42H24.2133C26.1314 45.9001 27.8577 46.7643 28.1455 46.9564H28.7209C28.7209 46.9564 26.8028 45.8041 24.597 45.42C24.597 45.612 23.542 41.771 25.0765 38.8902ZM20.473 46.8603H20.1853C20.0894 46.8603 19.9935 46.8603 19.8976 46.9564C19.8017 46.9564 19.7058 47.0524 19.6099 47.0524C19.514 47.0524 19.4181 47.1484 19.3222 47.1484C19.2263 47.1484 19.1303 47.2444 19.0344 47.2444C18.9385 47.2444 18.8426 47.3405 18.7467 47.3405C18.5549 47.4365 18.3631 47.5325 18.2672 47.6285C18.1713 47.8206 18.1713 47.9166 18.1713 48.1087C18.1713 48.1087 19.8017 46.9564 21.2403 46.8603C23.542 46.6683 24.8847 46.8603 27.6659 47.0524C24.3092 46.7643 22.8707 46.5723 20.473 46.8603Z" fill="black"/>
<path d="M16.6368 16.8048C16.5409 16.9008 16.3491 17.0928 16.0614 17.0928C15.7737 17.0928 15.5819 16.9968 15.5819 16.8048H15.1982C15.0064 16.8048 13.8556 17.1889 13.7597 17.1889C13.7597 17.1889 15.486 16.3246 15.8696 16.3246C16.3491 16.3246 16.7327 16.5167 17.0204 16.6127C17.3082 16.7087 17.9795 16.8048 17.9795 16.8048C18.0754 16.8048 17.8836 16.9008 17.6918 16.9008C17.5 16.9968 17.0204 16.9968 16.6368 16.8048ZM22.7748 41.0992C22.7748 40.8112 22.583 40.4271 22.2952 40.043L22.1993 39.9469C22.1034 39.8509 22.1034 39.7549 22.0075 39.7549C21.9116 39.6589 21.8157 39.5628 21.8157 39.4668L21.7198 39.3708C21.6239 39.2747 21.4321 39.0827 21.2403 38.9867L22.6789 39.3708V41.0992H22.7748ZM43.874 16.9968C39.1746 20.4537 29.5841 20.3577 28.0496 20.7418C26.5151 21.1259 26.9946 22.1822 26.9946 22.1822C24.8847 27.6557 21.1444 24.9669 21.1444 24.9669C18.2672 23.1425 18.7467 25.063 19.8976 27.2716C15.3901 26.6954 19.1304 20.4537 20.6649 19.2054C22.3912 17.9571 24.2134 14.3081 24.2134 14.3081C23.6379 14.8843 22.0075 16.0366 17.5959 15.1723C15.6778 14.7882 14.2392 16.0366 14.2392 16.0366C5.7036 15.2684 7.90943 19.0134 7.90943 19.0134C8.86848 17.573 11.4579 18.2452 11.4579 18.2452C11.4579 18.7253 11.7456 19.0134 12.0334 19.2054C11.9375 19.7816 11.8416 20.5498 11.5538 21.318C11.2661 21.2219 10.4989 20.9339 10.2112 20.9339C9.53982 21.0299 9.63572 21.9902 8.86848 22.2782C8.96439 22.4703 9.2521 22.6623 9.63572 22.7584C9.34801 23.1425 9.34801 23.7186 9.34801 23.8146C9.34801 24.1027 9.53982 24.1987 9.53982 24.2948V24.6789C9.73163 24.5828 9.92344 24.4868 10.1153 24.4868C10.2112 24.4868 10.6907 24.4868 10.8825 24.3908C11.0743 24.2948 11.2661 24.1027 11.4579 23.7186C11.5538 23.7186 11.5538 23.8146 11.5538 23.8146C11.6497 23.9107 11.8415 24.2948 11.8415 24.3908C11.9375 24.3908 11.9375 24.0067 12.1293 23.8146C12.2252 23.6226 12.5129 23.1425 12.7047 22.7584C12.8006 22.3743 12.6088 22.0862 12.5129 21.9901L12.1293 21.606C12.3211 20.9339 12.5129 20.2617 12.6088 19.3975V18.4372C12.6088 18.0531 12.417 17.9571 12.417 17.9571C12.7047 17.669 12.9924 18.2452 12.9924 18.2452V19.3975C13.4719 19.3975 13.7597 19.2054 13.7597 19.2054C13.7597 19.2054 16.5409 18.9173 16.9245 19.5895C17.3082 20.2617 17.2123 22.0862 14.7187 26.5034C12.0334 31.3046 14.9105 36.0099 18.8427 38.0264C20.1853 38.9867 22.9666 41.4833 22.583 44.7482C22.583 44.7482 17.5 45.8045 17.3082 48.0131C17.3082 48.0131 18.9386 46.8608 20.3771 46.7647C22.9666 46.5727 24.4052 46.6687 28.1455 47.0528C28.1455 47.0528 26.1315 45.9005 23.9256 45.4204C23.9256 45.4204 22.9666 41.7714 24.3093 38.8906H24.5011C26.1315 38.5065 29.1045 40.139 29.1045 40.139L28.4332 38.4105C31.5022 38.8906 33.0367 42.5396 33.0367 42.5396C32.9408 39.4668 30.9267 36.394 28.5291 33.8013C28.9127 33.8973 29.2004 33.8973 29.4882 33.8973C30.3513 33.9933 31.1185 33.8973 31.8858 33.8013L30.8308 29.5762L32.9408 33.5132C35.0507 32.9371 36.777 31.5927 38.2156 29.9603L36.0097 27.8477L38.8869 29.3841C40.0378 27.9437 40.9009 26.2153 41.6682 24.5828L38.6951 23.2385L41.9559 23.7186C43.3945 20.1657 43.874 16.9968 43.874 16.9968Z" fill="#010544"/>
<path d="M20.6647 19.2046C19.0343 20.4529 15.294 26.6946 19.8974 27.2707C16.3489 26.1184 19.8015 20.4529 21.336 19.3006C23.0623 18.0523 24.8845 14.4033 24.8845 14.4033C24.6927 14.5954 24.3091 14.7874 23.9255 14.9795C23.2541 16.1318 21.9115 18.3404 20.6647 19.2046ZM29.1044 33.9925C28.9126 33.9925 28.7207 33.9925 28.5289 33.8965C28.6248 33.9925 28.7207 34.1846 28.9126 34.2806L29.0085 34.3766C29.1044 34.4727 29.2003 34.6647 29.2962 34.7607L29.3921 34.8568C29.488 34.9528 29.5839 35.1448 29.6798 35.2409C29.7757 35.3369 29.8716 35.5289 29.9675 35.625C30.0634 35.721 30.1593 35.913 30.2552 36.0091V36.1051C30.3511 36.2011 30.447 36.3932 30.543 36.4892V36.5852C30.6389 36.6812 30.7348 36.8733 30.8307 36.9693C30.9266 37.0654 31.0225 37.2574 31.1184 37.3534C31.2143 37.4495 31.3102 37.6415 31.4061 37.7375V37.8336C31.502 37.9296 31.5979 38.1216 31.5979 38.2177V38.3137C31.6938 38.4097 31.6938 38.6018 31.7897 38.6978V38.7938C31.8856 38.8898 31.8856 39.0819 31.9815 39.1779V39.2739C32.0774 39.37 32.0774 39.562 32.1733 39.658C32.1733 39.658 32.1733 39.7541 32.2693 39.7541C32.2693 39.8501 32.3652 40.0421 32.3652 40.1382V40.3302C32.3652 40.4262 32.4611 40.5223 32.4611 40.6183C32.4611 40.7143 32.4611 40.7143 32.557 40.8103C32.557 40.9064 32.557 41.0024 32.6529 41.0984V41.1945C33.1324 41.9627 33.4201 42.5388 33.4201 42.5388C33.6119 39.7541 31.4061 36.4892 29.1044 33.9925ZM28.433 38.5057L29.0085 40.0421C29.3921 40.2342 29.6798 40.4262 29.6798 40.4262L29.0085 38.6978C28.9126 38.6018 28.6248 38.5057 28.433 38.5057Z" fill="black"/>
<path d="M51.2588 18.5325L51.4506 19.1086C52.026 18.2444 53.1769 18.1484 53.9441 18.2444C53.3687 18.0523 52.1219 17.9563 51.2588 18.5325Z" fill="black"/>
<path d="M54.1357 21.2215C54.2316 21.2215 54.2316 21.2215 54.3275 21.3175H54.4234V21.2215C54.0398 21.1255 53.5603 20.9334 53.4644 20.9334H53.2726L54.1357 21.2215ZM53.0808 24.4864H52.9849V24.5824C53.0808 24.4864 53.2726 24.4864 53.3685 24.3904C53.1767 24.4864 53.0808 24.4864 53.0808 24.4864ZM64.2058 39.0823C64.3976 39.2743 64.5894 39.3703 64.6853 39.4664L64.7812 39.5624C64.8771 39.6584 64.9731 39.7545 64.9731 39.8505L65.1649 40.0425L65.2608 40.1386C65.5485 40.4266 65.7403 40.8107 65.7403 41.1948V40.0425L65.069 39.3703L64.2058 39.0823ZM73.7964 29.6718L74.8513 33.8969H72.4537C72.6455 33.8969 72.8373 33.8969 73.0291 33.9929C73.8923 34.0889 74.6595 33.9929 75.4267 33.8969L74.8513 31.7843L73.7964 29.6718ZM60.945 16.8043C60.8491 16.8043 60.2737 16.6123 59.986 16.6123C59.6982 16.5163 59.3146 16.3242 58.8351 16.3242C58.4515 16.3242 56.7252 17.1884 56.7252 17.1884C56.8211 17.1884 57.876 16.8043 58.1638 16.8043H58.5474C58.5474 16.9964 58.7392 17.0924 59.0269 17.0924C59.3146 17.0924 59.5064 16.9004 59.6023 16.8043C59.986 16.9004 60.4655 16.9004 60.7532 16.9004C60.8491 16.9004 60.945 16.8043 60.945 16.8043ZM62.959 24.3904C62.959 24.3904 63.0549 24.3904 63.0549 24.4864H63.1508C63.1508 24.4864 63.2467 24.4864 63.2467 24.5824C63.3427 24.5824 63.3427 24.6784 63.4386 24.6784H63.5345L63.6304 24.7745H63.7263C63.8222 24.7745 63.9181 24.8705 63.9181 24.8705H64.014C64.3017 25.0625 65.069 25.4466 66.028 25.4466C65.1649 25.2546 64.4935 24.8705 64.4935 24.8705C63.5345 24.2943 62.959 24.1023 62.6713 24.1983C62.8631 24.3904 62.8631 24.3904 62.959 24.3904ZM54.5194 23.8142L54.3275 23.6222C54.1357 24.0063 53.9439 24.1983 53.7521 24.2943H53.3685C53.5603 24.2943 53.848 24.2943 54.1357 24.1983C54.2316 24.2943 54.4234 24.1023 54.5194 23.8142ZM55.4784 21.6056C55.7661 21.0295 55.9579 20.3573 55.9579 19.397V18.2447C55.9579 18.2447 55.7661 17.7646 55.3825 17.9567C55.3825 17.9567 55.5743 18.0527 55.5743 18.4368V19.397C55.4784 20.1652 55.2866 20.9334 55.0948 21.6056L55.4784 21.9897C55.5743 22.0858 55.7661 22.3738 55.6702 22.7579C55.4784 23.142 55.2866 23.7182 55.0948 23.8142C55.0948 23.8142 54.9989 23.9102 54.9989 24.0063L55.1907 24.3904C55.2866 24.3904 55.2866 24.0063 55.4784 23.8142C55.5743 23.6222 55.862 23.142 56.0538 22.7579C56.1497 22.3738 55.9579 22.0858 55.862 21.9897L55.4784 21.6056ZM78.8793 27.8473L81.1811 30.1519L80.8934 30.44L80.7975 30.536L80.6056 30.7281L80.5097 30.8241L80.3179 31.0161L80.222 31.1122L80.0302 31.3042L79.9343 31.4002C79.8384 31.4002 79.8384 31.4963 79.7425 31.4963C79.6466 31.4963 79.6466 31.5923 79.5507 31.5923L79.4548 31.6883C79.3589 31.6883 79.3589 31.7843 79.263 31.7843L79.1671 31.8804C79.0712 31.8804 79.0712 31.9764 78.9753 31.9764L78.8793 32.0724C78.7834 32.0724 78.7834 32.1684 78.6875 32.1684C78.6875 32.1684 78.5916 32.1684 78.5916 32.2645C78.4957 32.3605 78.3998 32.3605 78.3998 32.4565C77.8244 32.8406 77.153 33.1287 76.4817 33.4168L76.5776 33.6088C78.6875 33.0327 80.4138 31.6883 81.8524 30.0559L80.222 28.4234L78.8793 27.8473ZM86.6477 17.4765C86.5518 17.8606 86.4559 18.3408 86.36 19.0129V19.109C86.36 19.205 86.36 19.301 86.2641 19.397V19.7811C86.2641 19.8772 86.2641 19.9732 86.1682 19.9732V20.0692C86.1682 20.1652 86.0723 20.2613 86.0723 20.4533V20.5493C86.0723 20.6454 85.9763 20.7414 85.9763 20.9334C85.9763 21.0295 85.8804 21.2215 85.8804 21.3175V21.4136L85.5927 22.2778L85.0173 23.7182L85.5927 23.8142C87.0313 20.1652 87.5108 16.9964 87.5108 16.9964C87.1272 17.1884 86.8395 17.3805 86.6477 17.4765ZM81.5647 23.3341L84.5378 24.6784L84.2501 25.2546C83.6746 26.599 82.9074 28.0393 81.9483 29.2877L82.4278 29.5757C83.5787 28.1354 84.4419 26.4069 85.2091 24.7745L82.3319 23.5261L81.5647 23.3341ZM67.9461 38.8902H67.2748C65.9321 41.771 66.8912 45.42 66.8912 45.42H67.083C69.0011 45.9001 70.7274 46.7643 71.0151 46.9564H71.5905C71.5905 46.9564 69.6724 45.8041 67.4666 45.42C67.4666 45.612 66.4116 41.771 67.9461 38.8902ZM63.3427 46.8603H63.0549C62.959 46.8603 62.8631 46.8603 62.7672 46.9564C62.6713 46.9564 62.5754 47.0524 62.4795 47.0524C62.3836 47.0524 62.2877 47.1484 62.1918 47.1484C62.0959 47.1484 62 47.2444 61.9041 47.2444C61.8082 47.2444 61.7123 47.3405 61.6164 47.3405C61.4245 47.4365 61.2327 47.5325 61.1368 47.6285C61.0409 47.8206 61.0409 47.9166 61.0409 48.1087C61.0409 48.1087 62.6713 46.9564 64.1099 46.8603C66.4116 46.6683 67.7543 46.8603 70.5356 47.0524C67.1789 46.7643 65.7403 46.5723 63.3427 46.8603Z" fill="black"/>
<path d="M59.5065 16.804C59.4105 16.9 59.2187 17.092 58.931 17.092C58.6433 17.092 58.4515 16.996 58.4515 16.804H58.0679C57.8761 16.804 56.7252 17.1881 56.6293 17.1881C56.6293 17.1881 58.3556 16.3238 58.7392 16.3238C59.2187 16.3238 59.6024 16.5159 59.8901 16.6119C60.1778 16.7079 60.8491 16.804 60.8491 16.804C60.945 16.804 60.7532 16.9 60.5614 16.9C60.3696 16.996 59.8901 16.996 59.5065 16.804ZM65.6444 41.0984C65.6444 40.8103 65.4526 40.4262 65.1649 40.0421L65.069 39.9461C64.9731 39.8501 64.9731 39.7541 64.8772 39.7541C64.7813 39.658 64.6853 39.562 64.6853 39.466L64.5894 39.37C64.4935 39.2739 64.3017 39.0819 64.1099 38.9859L65.5485 39.37V41.0984H65.6444ZM86.7436 16.996C82.0442 20.4529 72.4537 20.3569 70.9192 20.741C69.3847 21.1251 69.8642 22.1814 69.8642 22.1814C67.7543 27.7509 63.9181 24.9661 63.9181 24.9661C61.0409 23.1416 61.5205 25.0622 62.6713 27.2707C58.1638 26.6946 61.9041 20.4529 63.4386 19.2046C65.2608 17.9563 67.083 14.4033 67.083 14.4033C66.5076 14.9795 64.8772 16.1318 60.4655 15.2675C58.5474 14.8834 57.1088 16.1318 57.1088 16.1318C48.5732 15.3636 50.7791 19.1086 50.7791 19.1086C51.6422 17.6682 54.2317 18.3404 54.2317 18.3404C54.2317 18.8205 54.5194 19.1086 54.8071 19.3006C54.7112 19.8768 54.6153 20.645 54.3276 21.4132C54.0398 21.3172 53.2726 21.0291 52.9849 21.0291C52.3135 21.1251 52.4094 22.0854 51.6422 22.3734C51.7381 22.5655 52.0258 22.7575 52.4094 22.8536C52.1217 23.2377 52.1217 23.8138 52.1217 23.9098C52.1217 24.1979 52.3135 24.294 52.3135 24.39V24.7741C52.5054 24.6781 52.6972 24.582 52.889 24.582C52.9849 24.582 53.4644 24.582 53.6562 24.486C53.848 24.39 54.0398 24.1979 54.2317 23.8138C54.3276 23.8138 54.3276 23.9098 54.3276 23.9098C54.4235 24.0059 54.6153 24.39 54.6153 24.486C54.7112 24.486 54.7112 24.1019 54.903 23.9098C54.9989 23.7178 55.2866 23.2377 55.4784 22.8536C55.5743 22.4695 55.3825 22.1814 55.2866 22.0854L54.903 21.7013C55.0948 21.0291 55.2866 20.3569 55.3825 19.4927V18.5324C55.3825 18.1483 55.1907 18.0523 55.1907 18.0523C55.4784 17.7642 55.7661 18.3404 55.7661 18.3404V19.4927C56.2457 19.4927 56.5334 19.3006 56.5334 19.3006C56.5334 19.3006 59.3146 19.0125 59.6983 19.6847C60.0819 20.3569 59.986 22.1814 57.4924 26.5986C54.8071 31.3998 57.6842 36.1051 61.6164 38.1216C62.959 39.0819 65.7403 41.5786 65.3567 44.8434C65.3567 44.8434 60.2737 45.8997 60.0819 48.1083C60.0819 48.1083 61.7123 46.956 63.1509 46.86C65.7403 46.6679 67.1789 46.7639 70.9192 47.148C70.9192 47.148 68.9052 45.9957 66.6994 45.5156C66.6994 45.5156 65.7403 41.8666 67.083 38.9859H67.2748C68.9052 38.6018 71.8783 40.2342 71.8783 40.2342L71.2069 38.5057C74.2759 38.9859 75.8104 42.6348 75.8104 42.6348C75.7145 39.562 73.7005 36.4892 71.3028 33.8965C71.6864 33.9925 71.9742 33.9925 72.2619 33.9925C73.125 34.0886 73.8923 33.9925 74.6595 33.8965L73.7964 29.6714L75.9063 33.6084C78.0162 33.0323 79.7425 31.6879 81.1811 30.0555L78.8794 27.8469L81.7565 29.3833C82.9074 27.9429 83.7705 26.2145 84.5378 24.582L81.5647 23.2377L84.8255 23.7178C86.2641 20.1649 86.7436 16.996 86.7436 16.996Z" fill="#010544"/>
<path d="M63.5343 19.2046C61.9039 20.4529 58.1636 26.6946 62.7671 27.2707C59.2186 26.1184 62.6712 20.4529 64.2057 19.3006C65.932 18.0523 67.7542 14.4033 67.7542 14.4033C67.5623 14.5954 67.1787 14.7874 66.7951 14.9795C66.1238 16.1318 64.7811 18.3404 63.5343 19.2046ZM71.974 33.9925C71.7822 33.9925 71.5904 33.9925 71.3986 33.8965C71.4945 33.9925 71.5904 34.1846 71.7822 34.2806L71.8781 34.3766C71.974 34.4727 72.0699 34.6647 72.1658 34.7607L72.2617 34.8568C72.3576 34.9528 72.4535 35.1448 72.5494 35.2409C72.6453 35.3369 72.7412 35.5289 72.8371 35.625C72.9331 35.721 73.029 35.913 73.1249 36.0091V36.1051C73.2208 36.2011 73.3167 36.3932 73.4126 36.4892V36.5852C73.5085 36.6812 73.6044 36.8733 73.7003 36.9693C73.7962 37.0654 73.8921 37.2574 73.988 37.3534C74.0839 37.4495 74.1798 37.6415 74.2757 37.7375V37.8336C74.3716 37.9296 74.4675 38.1216 74.4675 38.2177V38.3137C74.5634 38.4097 74.5634 38.6018 74.6594 38.6978V38.7938C74.7553 38.8898 74.7553 39.0819 74.8512 39.1779V39.2739C74.9471 39.37 74.9471 39.562 75.043 39.658C75.043 39.658 75.043 39.7541 75.1389 39.7541C75.1389 39.8501 75.2348 40.0421 75.2348 40.1382V40.3302C75.2348 40.4262 75.3307 40.5223 75.3307 40.6183C75.3307 40.7143 75.3307 40.7143 75.4266 40.8103C75.4266 40.9064 75.4266 41.0024 75.5225 41.0984V41.1945C76.002 41.9627 76.2897 42.5388 76.2897 42.5388C76.4816 39.7541 74.2757 36.4892 71.974 33.9925ZM71.3027 38.5057L71.8781 40.0421C72.2617 40.2342 72.5494 40.4262 72.5494 40.4262L71.8781 38.6978C71.7822 38.6018 71.4945 38.5057 71.3027 38.5057Z" fill="black"/>
<path d="M26.4189 88.3434C26.5149 88.7275 26.7067 89.0156 26.7067 89.0156C27.378 87.9593 28.8166 87.7673 29.8715 87.8633C29.1043 87.7673 27.4739 87.5752 26.4189 88.3434Z" fill="black"/>
<path d="M29.9676 91.7039C30.0635 91.7039 30.0635 91.7039 29.9676 91.7039C30.0635 91.7039 30.1594 91.7999 30.1594 91.7999H30.2553V91.7039C29.7758 91.6079 29.2003 91.3198 29.0085 91.4158C28.9126 91.4158 28.9126 91.4158 28.8167 91.5119C29.2003 91.5119 29.6799 91.6079 29.9676 91.7039ZM28.7208 95.833C28.6249 95.833 28.6249 95.833 28.7208 95.833H28.4331V96.0251C28.6249 95.929 28.7208 95.833 28.9126 95.833H28.7208ZM42.6271 114.174L43.2025 114.75L43.2985 114.846L43.5862 115.134C43.6821 115.23 43.778 115.326 43.778 115.422C43.778 115.422 43.778 115.518 43.8739 115.518C44.1616 115.902 44.4493 116.382 44.4493 116.767V115.23C44.1616 114.846 43.778 114.558 43.5862 114.366L42.6271 114.174ZM54.6153 102.363L55.958 107.644C55.8621 107.644 55.7662 107.644 55.5744 107.74H52.9849C53.1767 107.74 53.4644 107.836 53.6562 107.836C54.7112 107.932 55.7662 107.836 56.7252 107.74L56.0539 105.147L54.6153 102.363ZM38.5032 86.2305C38.4073 86.2305 37.64 86.0384 37.2564 85.9424C36.8728 85.8464 36.3933 85.6543 35.8178 85.6543C35.3383 85.6543 33.2284 86.8066 33.2284 86.8066C33.3243 86.8066 34.667 86.3265 34.9547 86.3265H35.3383C35.3383 86.6146 35.626 86.7106 36.0096 86.7106C36.3933 86.7106 36.681 86.4225 36.681 86.3265C37.1605 86.5185 37.8318 86.5185 38.1196 86.4225C38.4073 86.3265 38.5991 86.2305 38.5032 86.2305ZM41.0926 95.737C41.1885 95.737 41.1885 95.737 41.2844 95.833H41.3803C41.3803 95.833 41.4762 95.833 41.4762 95.929C41.5722 95.929 41.5722 96.0251 41.6681 96.0251C41.6681 96.0251 41.764 96.0251 41.764 96.1211C41.8599 96.1211 41.8599 96.2171 41.9558 96.2171C41.9558 96.2171 42.0517 96.2171 42.0517 96.3131C42.1476 96.4092 42.2435 96.4092 42.3394 96.5052H42.5312C42.8189 96.6972 43.8739 97.2734 45.1207 97.2734C44.4331 97.1599 43.7786 96.8977 43.2025 96.5052C41.9558 95.737 41.2844 95.5449 40.9008 95.641C40.9008 95.641 40.9967 95.737 41.0926 95.737ZM30.4471 94.9688L30.2553 94.7767C30.0635 95.2569 29.7758 95.5449 29.584 95.641C29.584 95.641 29.4881 95.641 29.4881 95.737H29.2003C29.3922 95.737 29.8717 95.737 30.1594 95.5449C30.1594 95.5449 30.3512 95.3529 30.4471 94.9688C30.543 95.0648 30.543 95.0648 30.4471 94.9688ZM31.6939 92.184C31.9816 91.5119 32.2693 90.5516 32.2693 89.3993V88.0549C32.2693 88.0549 31.9816 87.3828 31.598 87.7669C31.598 87.7669 31.7898 87.8629 31.8857 88.343V89.5914C31.7898 90.5516 31.598 91.5119 31.3103 92.2801C31.4062 92.4721 31.6939 92.6642 31.7898 92.7602C31.8857 92.8562 32.1734 93.2403 31.9816 93.7204C31.7898 94.2006 31.5021 94.8728 31.3103 95.0648C31.3103 95.1608 31.2144 95.1608 31.2144 95.2569C31.3103 95.4489 31.4062 95.641 31.5021 95.737C31.598 95.737 31.598 95.2569 31.7898 95.0648C31.9816 94.8728 32.2693 94.2006 32.4611 93.7204C32.6529 93.2403 32.3652 92.8562 32.2693 92.7602C31.9816 92.4721 31.7898 92.3761 31.6939 92.184ZM61.1369 100.154L64.014 103.035C63.9181 103.131 63.8222 103.323 63.7263 103.419L63.6304 103.515L63.3427 103.803L63.2468 103.899L63.055 104.091C62.9591 104.091 62.9591 104.187 62.8632 104.187L62.6714 104.379L62.4795 104.571L62.2877 104.763L62.0959 104.955C62 105.051 62 105.051 61.9041 105.051L61.7123 105.244C61.6164 105.244 61.6164 105.34 61.5205 105.34C61.4246 105.436 61.3287 105.436 61.3287 105.532L61.2328 105.628C61.1369 105.724 61.041 105.724 60.9451 105.82C60.9451 105.82 60.8492 105.82 60.8492 105.916C60.7533 106.012 60.6573 106.012 60.5614 106.108H60.4655C59.6983 106.588 58.8351 106.972 57.972 107.26L58.1638 107.548C60.8492 106.78 63.055 105.147 64.7813 103.131L62.6714 101.018L61.1369 100.154ZM70.8233 87.0947C70.7274 87.5748 70.6315 88.151 70.4397 89.0152V89.1112C70.4397 89.2072 70.3438 89.3993 70.3438 89.4953C70.3438 89.5913 70.3438 89.6874 70.2479 89.6874V89.8794C70.2479 89.9754 70.152 90.0715 70.152 90.1675V90.2635C70.152 90.3596 70.0561 90.5516 70.0561 90.7437V90.8397C70.0561 91.0317 69.9602 91.1278 69.9602 91.3198V91.4158C69.8643 91.6079 69.8643 91.7999 69.7684 91.896V91.992C69.6725 92.3761 69.5766 92.7602 69.3847 93.1443C69.1929 93.7204 69.0011 94.3926 68.7134 94.9688L69.4807 95.0648C71.3029 90.5516 71.8783 86.5185 71.8783 86.5185C71.3988 86.7106 71.111 86.9026 70.8233 87.0947ZM64.3977 94.3926L68.138 96.0251C68.0421 96.3131 67.9462 96.5052 67.8503 96.7933C67.083 98.5217 66.124 100.25 64.9731 101.787L65.5485 102.075C66.9871 100.25 68.138 98.1376 69.0011 96.0251L65.4526 94.3926H64.3977ZM47.3265 113.982H46.4633C44.737 117.535 45.9838 122.144 45.9838 122.144C46.0797 122.144 46.1756 122.144 46.2715 122.24C48.6692 122.816 50.875 123.968 51.2586 124.161H51.9299C51.9299 124.161 49.5323 122.72 46.7511 122.144C46.7511 122.336 45.4084 117.535 47.3265 113.982ZM41.5722 123.872C41.4763 123.872 41.2844 123.872 41.1885 123.969C41.0926 123.969 40.9967 123.968 40.8049 124.065C40.709 124.065 40.6131 124.161 40.4213 124.161C40.3254 124.161 40.2295 124.257 40.0377 124.257C39.9418 124.257 39.8459 124.353 39.75 124.353C39.654 124.353 39.5581 124.449 39.4622 124.545C39.2704 124.641 38.9827 124.737 38.7909 124.833C38.695 125.025 38.695 125.217 38.5991 125.505C38.5991 125.505 40.709 124.065 42.4353 123.969C45.3125 123.68 47.0388 123.968 50.4914 124.161C46.3674 123.776 44.6411 123.584 41.5722 123.872Z" fill="black"/>
<path d="M36.7768 86.2307C36.6809 86.3267 36.4891 86.6148 36.1054 86.6148C35.7218 86.6148 35.4341 86.5188 35.4341 86.2307H35.0505C34.7628 86.3267 33.4201 86.8069 33.3242 86.7108C33.3242 86.7108 35.4341 85.5585 35.9136 85.5585C36.4891 85.5585 36.9686 85.7506 37.3522 85.8466C37.7358 85.9426 38.5031 86.1347 38.599 86.1347C38.6949 86.1347 38.5031 86.2307 38.3113 86.3267C37.8317 86.4228 37.1604 86.4228 36.7768 86.2307ZM44.4492 116.767C44.4492 116.383 44.1615 115.903 43.8738 115.518C43.8738 115.518 43.8738 115.422 43.7779 115.422C43.682 115.326 43.5861 115.23 43.5861 115.134L43.2984 114.846C43.2984 114.846 43.2984 114.75 43.2024 114.75L42.627 114.174L44.4492 114.654V116.767ZM70.9191 86.4228C65.0689 90.8399 52.9848 90.5519 51.0667 91.128C49.1486 91.6081 49.724 92.9525 49.724 92.9525C47.0387 99.8663 42.3393 96.5054 42.3393 96.5054C38.6949 94.2968 39.3662 96.6015 40.8048 99.4822C35.1464 98.81 39.8458 90.936 41.8598 89.3995C43.9697 87.7671 46.3673 83.2539 46.3673 83.2539C45.696 84.0221 43.682 85.4625 38.1195 84.3102C35.6259 83.8301 33.8996 85.3665 33.8996 85.3665C23.1582 84.4062 25.9395 89.1115 25.9395 89.1115C27.0903 87.287 30.2552 88.1512 30.2552 88.1512C30.2552 88.8234 30.6388 89.1115 31.0225 89.3035C30.9265 90.0717 30.7347 91.032 30.447 91.8962C30.0634 91.8002 29.1043 91.4161 28.8166 91.5121C27.9535 91.6081 28.0494 92.8565 27.1862 93.2406C27.2821 93.4326 27.6658 93.7207 28.1453 93.8167C27.7617 94.2968 27.7617 95.0651 27.7617 95.1611C27.7617 95.5452 28.0494 95.6412 28.0494 95.7372V96.2174C28.3371 96.1213 28.5289 95.9293 28.7207 95.9293C28.9125 95.9293 29.3921 95.9293 29.6798 95.7372C29.8716 95.6412 30.1593 95.3531 30.3511 94.873C30.447 94.873 30.447 94.969 30.5429 94.969C30.7347 95.1611 30.9265 95.6412 30.9265 95.6412C31.0225 95.6412 31.0225 95.1611 31.2143 94.969C31.4061 94.777 31.6938 94.1048 31.8856 93.6247C32.0774 93.1445 31.7897 92.7604 31.6938 92.6644C31.5979 92.5684 31.3102 92.3763 31.2143 92.1843C31.502 91.4161 31.6938 90.4558 31.7897 89.4956C31.7897 89.4956 31.8856 88.7274 31.7897 88.2472C31.7897 87.7671 31.502 87.6711 31.502 87.6711C31.8856 87.383 32.1733 87.9592 32.1733 87.9592V89.3995C32.7488 89.3035 33.1324 89.2075 33.1324 89.2075C33.1324 89.2075 36.585 88.8234 37.0645 89.6876C37.6399 90.5519 37.3522 92.7604 34.2832 98.3299C30.9265 104.38 34.4751 110.237 39.4621 112.83C41.0925 114.078 44.5451 117.151 44.1615 121.28C44.1615 121.28 37.8317 122.528 37.544 125.409C37.544 125.409 39.6539 123.969 41.3802 123.873C44.641 123.585 46.3673 123.777 51.0667 124.257C51.0667 124.257 48.4772 122.816 45.7919 122.24C45.7919 122.24 44.5451 117.631 46.2714 114.078H46.4632C48.5732 113.598 52.2176 115.711 52.2176 115.711L51.3544 113.502C55.1906 114.078 57.1087 118.687 57.1087 118.687C57.0128 114.846 54.4234 111.005 51.4503 107.74C51.8339 107.836 52.3135 107.836 52.6971 107.932C53.7521 108.029 54.807 107.932 55.7661 107.836L54.4234 102.555L57.1087 107.548C59.7941 106.78 61.9999 105.148 63.7262 103.131L60.8491 100.25L64.3976 102.171C65.8361 100.346 66.987 98.2339 67.8502 96.1213L64.1098 94.4889L68.2338 95.1611C70.3437 90.4558 70.9191 86.4228 70.9191 86.4228Z" fill="#010544"/>
<path d="M41.8594 89.2083C39.8454 90.7447 35.146 98.6188 40.8044 99.291C36.2969 97.8506 40.7085 90.7447 42.6266 89.3043C44.7366 87.6719 47.1342 83.1587 47.1342 83.1587C46.9424 83.3507 46.367 83.6388 45.8874 83.9269C45.0243 85.3673 43.3939 88.056 41.8594 89.2083ZM52.409 107.741C52.2172 107.741 51.9295 107.645 51.7377 107.645L52.2172 108.125C52.2172 108.125 52.2172 108.221 52.3131 108.221C52.409 108.413 52.6008 108.509 52.6967 108.701C52.6967 108.701 52.6967 108.798 52.7926 108.798C52.8885 108.99 53.0803 109.086 53.1762 109.278V109.374C53.2722 109.566 53.464 109.758 53.5599 109.854C53.6558 110.046 53.8476 110.238 53.9435 110.43L54.0394 110.526C54.1353 110.718 54.3271 110.91 54.423 111.006C54.423 111.006 54.423 111.102 54.5189 111.102C54.6148 111.294 54.8066 111.486 54.9025 111.678C54.9984 111.87 55.0944 112.062 55.2862 112.254L55.5739 112.831C55.5739 112.831 55.5739 112.927 55.6698 112.927C55.7657 113.119 55.8616 113.311 55.9575 113.407C55.9575 113.407 55.9575 113.503 56.0534 113.503C56.1493 113.695 56.2452 113.887 56.3411 113.983V114.079C56.437 114.271 56.437 114.367 56.5329 114.559C56.5329 114.559 56.5329 114.655 56.6288 114.655C56.7247 114.847 56.7247 114.943 56.8207 115.135C56.8207 115.231 56.8207 115.231 56.9166 115.327C57.0125 115.519 57.0125 115.615 57.1084 115.807C57.1084 115.903 57.1084 115.903 57.2043 115.999C57.2043 116.095 57.3002 116.288 57.3002 116.384C57.3002 116.48 57.3002 116.576 57.3961 116.672C57.3961 116.768 57.492 116.864 57.492 117.056V117.248C58.1633 118.208 58.451 118.976 58.451 118.976C57.9715 115.039 55.2862 110.91 52.409 107.741ZM51.5458 113.503L52.3131 115.423C52.8885 115.711 53.1762 115.903 53.1762 115.903L52.409 113.695C52.1213 113.599 51.8336 113.503 51.5458 113.503Z" fill="black"/>
<path d="M34.2833 70.291C34.1874 70.291 34.0915 70.291 33.8997 70.195C33.7079 70.195 33.5161 70.195 33.4201 70.099C28.529 69.6189 24.1173 71.2513 21.8156 72.3076L21.0483 74.1321C21.0483 74.1321 34.9546 65.0096 45.5042 76.7247C45.5042 76.7247 41.668 71.4433 34.2833 70.291Z" fill="url(#paint0_linear_12006_16289)"/>
<path d="M69.9601 72.5952C67.5625 71.5389 62.7672 69.8104 57.3965 70.5786C64.5894 70.1945 70.5355 74.1316 70.5355 74.1316L69.9601 72.5952Z" fill="url(#paint1_linear_12006_16289)"/>
<path d="M20.8566 71.4426L20.0894 73.171C20.0894 73.171 28.3372 68.3697 36.8728 70.7704C30.1594 68.5618 23.446 70.4823 20.8566 71.4426Z" fill="url(#paint2_linear_12006_16289)"/>
<path d="M52.4092 71.8273C61.9038 67.8902 71.4944 73.3637 71.4944 73.3637L70.823 71.8273C68.2336 70.771 60.3693 68.1783 52.4092 71.8273Z" fill="url(#paint3_linear_12006_16289)"/>
<path d="M45.5043 76.628C36.681 66.9294 25.5559 71.6347 22.1033 73.5552L21.7197 74.4194L22.3911 74.8035C22.3911 74.8035 34.0915 66.4493 44.1616 76.8201C45.6961 78.3565 45.8879 77.9724 47.0388 76.8201C58.4515 65.9692 68.4257 74.7075 68.7134 74.6115C69.097 74.5154 69.6725 74.2274 69.6725 74.2274L69.3848 73.4592C65.9322 71.5387 54.8071 66.6414 45.792 76.2439L45.5043 76.628Z" fill="#A17205"/>
<path d="M19.7056 72.2107C19.7056 72.2107 34.475 64.8167 45.5041 76.8199L46.0796 55.1182C46.0796 55.1182 35.6259 47.4361 26.4189 55.5023L19.7056 72.2107Z" fill="#010544"/>
<path d="M71.7823 72.2109C71.7823 72.2109 56.9169 64.7209 45.6001 76.8201L46.1755 55.1183C46.1755 55.1183 57.4924 47.0522 65.4525 55.5024L71.7823 72.2109Z" fill="#010544"/>
<path d="M29.1046 60.112L29.3923 60.016C29.776 59.92 29.9678 59.7279 30.1596 59.0558H30.4473C30.3514 59.4399 30.2555 59.824 30.2555 60.2081C30.1596 60.5922 30.1596 60.8802 30.0637 61.2644H29.776C29.776 60.7842 29.776 60.4001 29.2964 60.4961H29.0087L28.5292 61.9365C28.3374 62.5127 28.5292 62.5127 29.2964 62.4167L29.2005 62.7047C28.721 62.8008 28.1456 62.8968 27.5701 62.9928C27.0906 63.0888 26.8029 63.1849 26.0356 63.2809L26.1315 62.9928C26.8988 62.8008 26.9947 62.6087 27.1865 61.9365L28.0497 59.3438C28.2415 58.5756 28.2415 58.2876 27.5701 58.3836L27.666 58.0955C28.1456 58.0955 28.9128 57.9995 29.5841 57.8074C30.3514 57.6154 31.1186 57.4233 31.9818 57.2313L31.8859 58.5756L31.5023 58.6717C31.5023 57.7114 31.2145 57.9035 30.2555 58.0955C29.6801 58.1915 29.5841 58.2876 29.3923 58.8637L29.1046 60.112ZM33.2286 58.6717C33.3245 57.9995 33.4204 57.8074 32.749 57.8074L32.8449 57.4233C33.2286 57.3273 33.5163 57.3273 33.9958 57.3273C34.4753 57.2313 34.763 57.2313 35.2426 57.1353V57.5194C34.5712 57.6154 34.4753 57.8074 34.3794 58.4796L33.7081 61.0723C33.5163 61.9365 33.5163 62.1286 34.1876 62.1286L34.0917 62.4167H32.749C32.3654 62.4167 31.79 62.5127 31.3104 62.5127L31.4064 62.2246C32.0777 62.1286 32.2695 61.8405 32.4613 61.0723L33.2286 58.6717ZM36.2975 61.1683C36.2016 61.3604 36.1057 61.4564 36.0098 61.8405C35.818 62.2246 36.2975 62.3206 36.4893 62.4167L36.3934 62.7047C36.1057 62.7047 35.818 62.6087 35.5303 62.6087H34.763L34.8589 62.3206C35.4344 62.3206 35.7221 61.6485 36.0098 61.0723C36.7771 59.4399 37.7361 57.3273 37.7361 57.3273L38.3115 57.4233C38.3115 57.4233 38.9829 60.8802 39.0788 61.6485C39.1747 62.3206 39.1747 62.4167 39.2706 62.7047C39.2706 62.8968 39.5583 63.0888 39.7501 63.1849L39.6542 63.4729C39.2706 63.3769 38.9829 63.2809 38.5034 63.1849C38.1197 63.0888 37.7361 62.9928 37.2566 62.9928L37.3525 62.6087C37.6402 62.6087 38.0238 62.6087 38.0238 62.2246C38.0238 62.1286 37.9279 61.6485 37.9279 61.5524L37.832 61.1683C37.832 61.1683 37.4484 61.0723 37.0648 61.0723C36.6812 60.9763 36.2975 60.9763 36.2975 60.9763V61.1683ZM37.2566 60.4961C37.6402 60.4961 37.9279 60.5922 37.9279 60.5922L37.5443 58.5756L36.6812 60.4001C36.6812 60.4001 36.873 60.4001 37.2566 60.4961ZM43.5863 60.8803L43.2986 60.7842C43.2986 60.016 43.2986 59.3438 42.915 59.1518C42.5314 58.9597 42.4355 59.1518 42.3396 59.824L42.0519 62.7047C41.956 63.4729 42.0519 63.761 42.6273 64.1451V64.5292C42.1478 64.3372 41.7641 64.1451 41.4764 63.9531C41.0928 63.761 40.7092 63.665 40.2297 63.4729L40.3256 63.1849C40.9969 63.3769 40.9969 63.1849 41.0928 62.4167L41.3805 59.5359C41.4764 58.9597 41.5723 58.5756 41.0928 58.4796C40.5174 58.2876 40.5174 58.8637 40.3256 59.5359L40.0378 59.4399L40.2297 57.8074C40.2297 57.8074 41.2846 57.9995 42.1478 58.3836C43.1068 58.7677 43.7782 59.2478 43.7782 59.2478L43.5863 60.8803ZM50.2038 64.4332C50.7793 64.0491 50.7793 63.761 50.7793 63.0888L50.5874 60.2081C50.5874 59.4399 50.5874 59.0558 49.9161 59.3438V58.9597C50.3956 58.7677 50.5874 58.6717 50.9711 58.4796C51.4506 58.2876 51.8342 58.1915 52.3137 58.0955V58.4796C51.6424 58.6717 51.7383 59.0558 51.7383 59.824L51.8342 62.2246C51.8342 63.0888 51.9301 63.569 52.7933 63.3769C53.8482 63.0888 54.2319 62.6087 54.3278 61.5524H54.6155V63.3769C53.2728 63.665 51.7383 64.2411 51.3547 64.3372C50.9711 64.5292 50.4915 64.7213 50.1079 64.9133L50.2038 64.4332ZM54.2319 57.9035C54.8073 57.8074 55.1909 57.8074 55.5745 57.8074H56.9172V58.0955C56.2459 58.0955 56.2459 58.5756 56.3418 59.2478L56.5336 60.5922C56.6295 61.7445 57.0131 62.4167 58.0681 62.3206C59.123 62.3206 59.123 61.7445 59.0271 60.6882L58.7394 59.5359C58.7394 59.2478 58.6435 58.8637 58.4517 58.5756C58.3558 58.2876 58.164 58.1915 57.8763 58.1915V57.9035C58.164 57.9035 58.4517 57.9995 58.7394 57.9995C59.0271 57.9995 59.123 57.9995 59.5067 58.0955V58.3836C59.3148 58.3836 59.123 58.4796 59.0271 58.7677C58.9312 59.0558 59.0271 59.4399 59.0271 59.7279L59.123 60.4961C59.3148 62.1286 59.5067 62.8968 57.5885 62.9928C56.4377 63.0888 55.1909 62.6087 54.9991 60.7842L54.8073 59.3438C54.7114 58.5756 54.7114 58.2876 54.04 58.2876L54.2319 57.9035ZM64.3978 63.0888C64.6856 63.4729 64.8774 63.761 65.261 63.761L65.3569 64.0491C64.8774 63.9531 64.5896 63.9531 64.1101 63.857C63.7265 63.761 63.3429 63.761 62.8633 63.665V63.3769H63.247C63.3429 63.3769 63.3429 63.2809 63.3429 63.1849C63.3429 62.9928 63.0552 62.6087 62.9593 62.5127L62.2879 61.4564L61.9043 62.0326C61.8084 62.2246 61.6166 62.6087 61.6166 62.8008C61.6166 63.0888 61.9043 63.1849 62.0961 63.2809V63.569C61.7125 63.4729 61.5207 63.4729 61.1371 63.3769C60.8493 63.3769 60.5616 63.2809 60.3698 63.2809V62.9928C60.7534 63.0888 60.9452 62.7047 61.1371 62.4167L62.0002 61.1683L61.0411 59.7279C60.9452 59.5359 60.8493 59.3438 60.6575 59.1518C60.4657 58.8637 60.3698 58.8637 60.178 58.7677V58.4796C60.4657 58.5756 60.8493 58.6717 61.233 58.7677C61.6166 58.8637 62.0002 58.8637 62.2879 58.9597V59.3438C62.0961 59.3438 61.8084 59.2478 61.9043 59.5359C61.9043 59.7279 62.0002 59.824 62.0961 60.016L62.5756 60.6882L62.8633 60.2081C62.9593 60.016 63.0552 59.92 63.1511 59.824C63.247 59.6319 62.9593 59.4399 62.6715 59.4399V59.1518C62.9593 59.1518 63.1511 59.2478 63.4388 59.2478H64.1101L64.206 59.5359C63.8224 59.5359 63.7265 59.7279 63.4388 60.112L62.7674 61.0723L64.3978 63.0888Z" fill="white"/>
<defs>
<linearGradient id="paint0_linear_12006_16289" x1="21.0512" y1="73.3811" x2="45.5186" y2="73.3811" gradientUnits="userSpaceOnUse">
<stop stop-color="white"/>
<stop offset="0.134" stop-color="#E7E7F1"/>
<stop offset="0.389" stop-color="#BCBBD8"/>
<stop offset="0.737" stop-color="#8484B5"/>
<stop offset="0.938" stop-color="#6768A3"/>
</linearGradient>
<linearGradient id="paint1_linear_12006_16289" x1="57.3946" y1="72.2418" x2="70.5192" y2="72.2418" gradientUnits="userSpaceOnUse">
<stop offset="0.096" stop-color="#6768A3"/>
<stop offset="0.318" stop-color="#8080B3"/>
<stop offset="0.807" stop-color="#CFCEE3"/>
<stop offset="1" stop-color="white"/>
</linearGradient>
<linearGradient id="paint2_linear_12006_16289" x1="20.1402" y1="71.4502" x2="36.9217" y2="71.4502" gradientUnits="userSpaceOnUse">
<stop stop-color="white"/>
<stop offset="0.155" stop-color="#E7E7F1"/>
<stop offset="0.452" stop-color="#BCBCD8"/>
<stop offset="0.857" stop-color="#8484B5"/>
<stop offset="0.938" stop-color="#7A7AAF"/>
</linearGradient>
<linearGradient id="paint3_linear_12006_16289" x1="52.4178" y1="71.6438" x2="71.4598" y2="71.6438" gradientUnits="userSpaceOnUse">
<stop offset="0.096" stop-color="#7A7AAF"/>
<stop offset="0.359" stop-color="#9594C0"/>
<stop offset="0.937" stop-color="#EEEEF5"/>
<stop offset="1" stop-color="white"/>
</linearGradient>
</defs>
</svg>
